<svg xmlns="http://www.w3.org/2000/svg" xmlns:xlink="http://www.w3.org/1999/xlink" contentStyleType="text/css" height="363px" preserveAspectRatio="none" style="width:207px;height:363px;background:#FFFFFF;" version="1.1" viewBox="0 0 207 363" width="207px" zoomAndPan="magnify"><defs/><g><!--cluster Main Application--><g id="cluster_Main Application"><path d="M8.5,6 L141.8164,6 A3.75,3.75 0 0 1 144.3164,8.5 L151.3164,28.2969 L197.5,28.2969 A2.5,2.5 0 0 1 200,30.7969 L200,208.09 A2.5,2.5 0 0 1 197.5,210.59 L8.5,210.59 A2.5,2.5 0 0 1 6,208.09 L6,8.5 A2.5,2.5 0 0 1 8.5,6 " fill="none" style="stroke:#000000;stroke-width:1.5;"/><line style="stroke:#000000;stroke-width:1.5;" x1="6" x2="151.3164" y1="28.2969" y2="28.2969"/><text fill="#000000" font-family="sans-serif" font-size="14" font-weight="bold" lengthAdjust="spacing" textLength="132.3164" x="10" y="20.9951">Main Application</text></g><!--cluster Utility Module--><g id="cluster_Utility Module"><path d="M42.5,259.59 L154.4814,259.59 A3.75,3.75 0 0 1 156.9814,262.09 L163.9814,281.8869 L163.5,281.8869 A2.5,2.5 0 0 1 166,284.3869 L166,354.39 A2.5,2.5 0 0 1 163.5,356.89 L42.5,356.89 A2.5,2.5 0 0 1 40,354.39 L40,262.09 A2.5,2.5 0 0 1 42.5,259.59 " fill="none" style="stroke:#000000;stroke-width:1.5;"/><line style="stroke:#000000;stroke-width:1.5;" x1="40" x2="163.9814" y1="281.8869" y2="281.8869"/><text fill="#000000" font-family="sans-serif" font-size="14" font-weight="bold" lengthAdjust="spacing" textLength="110.9814" x="44" y="274.5851">Utility Module</text></g><!--entity main.py--><g id="elem_main.py"><rect fill="#F1F1F1" height="46.2969" rx="2.5" ry="2.5" style="stroke:#181818;stroke-width:0.5;" width="96.6016" x="54.7" y="41"/><rect fill="#F1F1F1" height="10" style="stroke:#181818;stroke-width:0.5;" width="15" x="131.3016" y="46"/><rect fill="#F1F1F1" height="2" style="stroke:#181818;stroke-width:0.5;" width="4" x="129.3016" y="48"/><rect fill="#F1F1F1" height="2" style="stroke:#181818;stroke-width:0.5;" width="4" x="129.3016" y="52"/><text fill="#000000" font-family="sans-serif" font-size="14" lengthAdjust="spacing" textLength="56.6016" x="69.7" y="73.9951">main.py</text></g><!--entity ImageInfoModule--><g id="elem_ImageInfoModule"><rect fill="#F1F1F1" height="46.2969" rx="2.5" ry="2.5" style="stroke:#181818;stroke-width:0.5;" width="161.249" x="22.38" y="148.3"/><rect fill="#F1F1F1" height="10" style="stroke:#181818;stroke-width:0.5;" width="15" x="163.629" y="153.3"/><rect fill="#F1F1F1" height="2" style="stroke:#181818;stroke-width:0.5;" width="4" x="161.629" y="155.3"/><rect fill="#F1F1F1" height="2" style="stroke:#181818;stroke-width:0.5;" width="4" x="161.629" y="159.3"/><text fill="#000000" font-family="sans-serif" font-size="14" lengthAdjust="spacing" textLength="121.249" x="37.38" y="181.2951">ImageInfoModule</text></g><!--entity utils.py--><g id="elem_utils.py"><rect fill="#F1F1F1" height="46.2969" rx="2.5" ry="2.5" style="stroke:#181818;stroke-width:0.5;" width="91.0576" x="57.47" y="294.59"/><rect fill="#F1F1F1" height="10" style="stroke:#181818;stroke-width:0.5;" width="15" x="128.5276" y="299.59"/><rect fill="#F1F1F1" height="2" style="stroke:#181818;stroke-width:0.5;" width="4" x="126.5276" y="301.59"/><rect fill="#F1F1F1" height="2" style="stroke:#181818;stroke-width:0.5;" width="4" x="126.5276" y="305.59"/><text fill="#000000" font-family="sans-serif" font-size="14" lengthAdjust="spacing" textLength="51.0576" x="72.47" y="327.5851">utils.py</text></g><!--link main.py to ImageInfoModule--><g id="link_main.py_ImageInfoModule"><path d="M103,87.74 C103,105.5 103,124.14 103,141.89 " fill="none" id="main.py-to-ImageInfoModule" style="stroke:#181818;stroke-width:1;"/><polygon fill="#181818" points="103,147.89,107,138.89,103,142.89,99,138.89,103,147.89" style="stroke:#181818;stroke-width:1;"/></g><!--link ImageInfoModule to utils.py--><g id="link_ImageInfoModule_utils.py"><path d="M103,194.99 C103,222.1 103,261.32 103,288.35 " fill="none" id="ImageInfoModule-to-utils.py" style="stroke:#181818;stroke-width:1;stroke-dasharray:7.0,7.0;"/><polygon fill="#181818" points="103,294.35,107,285.35,103,289.35,99,285.35,103,294.35" style="stroke:#181818;stroke-width:1;"/><text fill="#000000" font-family="sans-serif" font-size="13" lengthAdjust="spacing" textLength="29.7832" x="104" y="239.6569">uses</text></g><!--SRC=[AqXCpavCJrLGyatCp5DmB2Z8oKnEBCdCprDIgEPIK8ZE1Ghh5LJ6AkZgsYb4U-O2rNhcfUNxvgUKvgJ6SjLoSHN0J0WjoSp9BAbKWCX1zPS21Oj11e2KOkXNqDEpGrAZOALGMfnQ3000]--></g></svg>