<svg xmlns="http://www.w3.org/2000/svg" xmlns:xlink="http://www.w3.org/1999/xlink" contentStyleType="text/css" height="428px" preserveAspectRatio="none" style="width:863px;height:428px;background:#FFFFFF;" version="1.1" viewBox="0 0 863 428" width="863px" zoomAndPan="magnify"><defs/><g><line style="stroke:#181818;stroke-width:0.5;stroke-dasharray:5.0,5.0;" x1="59" x2="59" y1="81.2969" y2="347.3594"/><line style="stroke:#181818;stroke-width:0.5;stroke-dasharray:5.0,5.0;" x1="377.7358" x2="377.7358" y1="81.2969" y2="347.3594"/><line style="stroke:#181818;stroke-width:0.5;stroke-dasharray:5.0,5.0;" x1="723.4326" x2="723.4326" y1="81.2969" y2="347.3594"/><line style="stroke:#181818;stroke-width:0.5;stroke-dasharray:5.0,5.0;" x1="818.4883" x2="818.4883" y1="81.2969" y2="347.3594"/><text fill="#000000" font-family="sans-serif" font-size="14" lengthAdjust="spacing" textLength="103.0996" x="5" y="77.9951">&#1055;&#1086;&#1083;&#1100;&#1079;&#1086;&#1074;&#1072;&#1090;&#1077;&#1083;&#1100;</text><ellipse cx="59.5498" cy="13.5" fill="#E2E2F0" rx="8" ry="8" style="stroke:#181818;stroke-width:0.5;"/><path d="M59.5498,21.5 L59.5498,48.5 M46.5498,29.5 L72.5498,29.5 M59.5498,48.5 L46.5498,63.5 M59.5498,48.5 L72.5498,63.5 " fill="none" style="stroke:#181818;stroke-width:0.5;"/><text fill="#000000" font-family="sans-serif" font-size="14" lengthAdjust="spacing" textLength="103.0996" x="5" y="359.3545">&#1055;&#1086;&#1083;&#1100;&#1079;&#1086;&#1074;&#1072;&#1090;&#1077;&#1083;&#1100;</text><ellipse cx="59.5498" cy="371.1563" fill="#E2E2F0" rx="8" ry="8" style="stroke:#181818;stroke-width:0.5;"/><path d="M59.5498,379.1563 L59.5498,406.1563 M46.5498,387.1563 L72.5498,387.1563 M59.5498,406.1563 L46.5498,421.1563 M59.5498,406.1563 L72.5498,421.1563 " fill="none" style="stroke:#181818;stroke-width:0.5;"/><rect fill="#E2E2F0" height="30.2969" rx="2.5" ry="2.5" style="stroke:#181818;stroke-width:0.5;" width="135.249" x="310.7358" y="50"/><text fill="#000000" font-family="sans-serif" font-size="14" lengthAdjust="spacing" textLength="121.249" x="317.7358" y="69.9951">ImageInfoModule</text><rect fill="#E2E2F0" height="30.2969" rx="2.5" ry="2.5" style="stroke:#181818;stroke-width:0.5;" width="135.249" x="310.7358" y="346.3594"/><text fill="#000000" font-family="sans-serif" font-size="14" lengthAdjust="spacing" textLength="121.249" x="317.7358" y="366.3545">ImageInfoModule</text><rect fill="#E2E2F0" height="30.2969" rx="2.5" ry="2.5" style="stroke:#181818;stroke-width:0.5;" width="94.0557" x="676.4326" y="50"/><text fill="#000000" font-family="sans-serif" font-size="14" lengthAdjust="spacing" textLength="80.0557" x="683.4326" y="69.9951">QFileDialog</text><rect fill="#E2E2F0" height="30.2969" rx="2.5" ry="2.5" style="stroke:#181818;stroke-width:0.5;" width="94.0557" x="676.4326" y="346.3594"/><text fill="#000000" font-family="sans-serif" font-size="14" lengthAdjust="spacing" textLength="80.0557" x="683.4326" y="366.3545">QFileDialog</text><rect fill="#E2E2F0" height="30.2969" rx="2.5" ry="2.5" style="stroke:#181818;stroke-width:0.5;" width="76.7402" x="780.4883" y="50"/><text fill="#000000" font-family="sans-serif" font-size="14" lengthAdjust="spacing" textLength="62.7402" x="787.4883" y="69.9951">QPixmap</text><rect fill="#E2E2F0" height="30.2969" rx="2.5" ry="2.5" style="stroke:#181818;stroke-width:0.5;" width="76.7402" x="780.4883" y="346.3594"/><text fill="#000000" font-family="sans-serif" font-size="14" lengthAdjust="spacing" textLength="62.7402" x="787.4883" y="366.3545">QPixmap</text><polygon fill="#181818" points="366.3604,108.4297,376.3604,112.4297,366.3604,116.4297,370.3604,112.4297" style="stroke:#181818;stroke-width:1;"/><line style="stroke:#181818;stroke-width:1;" x1="59.5498" x2="372.3604" y1="112.4297" y2="112.4297"/><text fill="#000000" font-family="sans-serif" font-size="13" lengthAdjust="spacing" textLength="294.8105" x="66.5498" y="107.3638">&#1053;&#1072;&#1078;&#1080;&#1084;&#1072;&#1077;&#1090; &#1082;&#1085;&#1086;&#1087;&#1082;&#1091; "&#1042;&#1099;&#1073;&#1088;&#1072;&#1090;&#1100; &#1080;&#1079;&#1086;&#1073;&#1088;&#1072;&#1078;&#1077;&#1085;&#1080;&#1077;"</text><polygon fill="#181818" points="711.4604,137.5625,721.4604,141.5625,711.4604,145.5625,715.4604,141.5625" style="stroke:#181818;stroke-width:1;"/><line style="stroke:#181818;stroke-width:1;" x1="378.3604" x2="717.4604" y1="141.5625" y2="141.5625"/><text fill="#000000" font-family="sans-serif" font-size="13" lengthAdjust="spacing" textLength="230.1851" x="385.3604" y="136.4966">&#1054;&#1090;&#1082;&#1088;&#1099;&#1074;&#1072;&#1077;&#1090; &#1076;&#1080;&#1072;&#1083;&#1086;&#1075; &#1074;&#1099;&#1073;&#1086;&#1088;&#1072; &#1092;&#1072;&#1081;&#1083;&#1072;</text><polygon fill="#181818" points="70.5498,166.6953,60.5498,170.6953,70.5498,174.6953,66.5498,170.6953" style="stroke:#181818;stroke-width:1;"/><line style="stroke:#181818;stroke-width:1;" x1="64.5498" x2="722.4604" y1="170.6953" y2="170.6953"/><text fill="#000000" font-family="sans-serif" font-size="13" lengthAdjust="spacing" textLength="183.1553" x="76.5498" y="165.6294">&#1055;&#1088;&#1077;&#1076;&#1083;&#1072;&#1075;&#1072;&#1077;&#1090; &#1074;&#1099;&#1073;&#1088;&#1072;&#1090;&#1100; &#1092;&#1072;&#1081;&#1083;</text><polygon fill="#181818" points="711.4604,195.8281,721.4604,199.8281,711.4604,203.8281,715.4604,199.8281" style="stroke:#181818;stroke-width:1;"/><line style="stroke:#181818;stroke-width:1;" x1="59.5498" x2="717.4604" y1="199.8281" y2="199.8281"/><text fill="#000000" font-family="sans-serif" font-size="13" lengthAdjust="spacing" textLength="107.4087" x="66.5498" y="194.7622">&#1042;&#1099;&#1073;&#1080;&#1088;&#1072;&#1077;&#1090; &#1092;&#1072;&#1081;&#1083;</text><polygon fill="#181818" points="389.3604,224.9609,379.3604,228.9609,389.3604,232.9609,385.3604,228.9609" style="stroke:#181818;stroke-width:1;"/><line style="stroke:#181818;stroke-width:1;" x1="383.3604" x2="722.4604" y1="228.9609" y2="228.9609"/><text fill="#000000" font-family="sans-serif" font-size="13" lengthAdjust="spacing" textLength="178.6548" x="395.3604" y="223.895">&#1042;&#1086;&#1079;&#1074;&#1088;&#1072;&#1097;&#1072;&#1077;&#1090; &#1087;&#1091;&#1090;&#1100; &#1082; &#1092;&#1072;&#1081;&#1083;&#1091;</text><polygon fill="#181818" points="806.8584,254.0938,816.8584,258.0938,806.8584,262.0938,810.8584,258.0938" style="stroke:#181818;stroke-width:1;"/><line style="stroke:#181818;stroke-width:1;" x1="378.3604" x2="812.8584" y1="258.0938" y2="258.0938"/><text fill="#000000" font-family="sans-serif" font-size="13" lengthAdjust="spacing" textLength="227.5952" x="385.3604" y="253.0278">&#1047;&#1072;&#1075;&#1088;&#1091;&#1078;&#1072;&#1077;&#1090; &#1080;&#1079;&#1086;&#1073;&#1088;&#1072;&#1078;&#1077;&#1085;&#1080;&#1077; &#1087;&#1086; &#1087;&#1091;&#1090;&#1080;</text><polygon fill="#181818" points="389.3604,283.2266,379.3604,287.2266,389.3604,291.2266,385.3604,287.2266" style="stroke:#181818;stroke-width:1;"/><line style="stroke:#181818;stroke-width:1;" x1="383.3604" x2="817.8584" y1="287.2266" y2="287.2266"/><text fill="#000000" font-family="sans-serif" font-size="13" lengthAdjust="spacing" textLength="268.144" x="395.3604" y="282.1606">&#1055;&#1088;&#1086;&#1074;&#1077;&#1088;&#1103;&#1077;&#1090; &#1082;&#1086;&#1088;&#1088;&#1077;&#1082;&#1090;&#1085;&#1086;&#1089;&#1090;&#1100; &#1080;&#1079;&#1086;&#1073;&#1088;&#1072;&#1078;&#1077;&#1085;&#1080;&#1103;</text><line style="stroke:#181818;stroke-width:1;" x1="378.3604" x2="420.3604" y1="316.3594" y2="316.3594"/><line style="stroke:#181818;stroke-width:1;" x1="420.3604" x2="420.3604" y1="316.3594" y2="329.3594"/><line style="stroke:#181818;stroke-width:1;" x1="379.3604" x2="420.3604" y1="329.3594" y2="329.3594"/><polygon fill="#181818" points="389.3604,325.3594,379.3604,329.3594,389.3604,333.3594,385.3604,329.3594" style="stroke:#181818;stroke-width:1;"/><text fill="#000000" font-family="sans-serif" font-size="13" lengthAdjust="spacing" textLength="331.1001" x="385.3604" y="311.2935">&#1054;&#1090;&#1086;&#1073;&#1088;&#1072;&#1078;&#1072;&#1077;&#1090; &#1080;&#1079;&#1086;&#1073;&#1088;&#1072;&#1078;&#1077;&#1085;&#1080;&#1077; &#1080; &#1080;&#1085;&#1092;&#1086;&#1088;&#1084;&#1072;&#1094;&#1080;&#1102; &#1086; &#1085;&#1077;&#1084;</text><!--SRC=[VP91Ji9G48RtFSLBzrx0XIjZmi94Z_22bJG1sc1DN28r9aOZ2HjNoXLgiL8BBLUOkP7_l5AWLLYrxtNc-__vfxeTU0D5KofemIyqnpEcY4UKoDdozI1mswwl-u6oMptTSLhzQ-_SkxhjEhRIDyhSbUTwyUMPstLENTtrEgPmUspKNRXtFUsRclBLilRPKKSdkuBgMD4xHVHDAItnJ7YaAACSJIlAE5GsJVYPFdae2BIZJeZc0bq9IbDAR6kN2OcjLL7uW7h6Gu3YIkCBRH4jW9efYaM22c4gVi3z3xv4rWu4oBqJGM2ArWHCTD6iaeXhnYlkmMJgjitab9fHXRX1r8qrufm0EuUu23zLNbOSbl5b6mg7pT3AtGdZJUP0O24YNXF-pHrWAjPqIgqruAydoKU6JS0SLqj6tYQs3BrOED_lNJ2FcrORV5dmjkUmurI-v4X1zer_ZXyXyAfaZXnLory0]--></g></svg>