<svg xmlns="http://www.w3.org/2000/svg" xmlns:xlink="http://www.w3.org/1999/xlink" contentStyleType="text/css" height="426px" preserveAspectRatio="none" style="width:965px;height:426px;background:#FFFFFF;" version="1.1" viewBox="0 0 965 426" width="965px" zoomAndPan="magnify"><defs/><g><ellipse cx="507.0779" cy="20" fill="#222222" rx="10" ry="10" style="stroke:#222222;stroke-width:1;"/><rect fill="#F1F1F1" height="33.9688" rx="12.5" ry="12.5" style="stroke:#181818;stroke-width:0.5;" width="257.8613" x="378.1472" y="50"/><text fill="#000000" font-family="sans-serif" font-size="12" lengthAdjust="spacing" textLength="237.8613" x="388.1472" y="71.1387">&#1055;&#1088;&#1086;&#1074;&#1077;&#1088;&#1080;&#1090;&#1100;, &#1074;&#1099;&#1073;&#1088;&#1072;&#1085;&#1086; &#1083;&#1080; &#1080;&#1079;&#1086;&#1073;&#1088;&#1072;&#1078;&#1077;&#1085;&#1080;&#1077;</text><polygon fill="#F1F1F1" points="438.062,103.9688,576.0938,103.9688,588.0938,115.9688,576.0938,127.9688,438.062,127.9688,426.062,115.9688,438.062,103.9688" style="stroke:#181818;stroke-width:0.5;"/><text fill="#000000" font-family="sans-serif" font-size="11" lengthAdjust="spacing" textLength="138.0317" x="438.062" y="119.7769">&#1048;&#1079;&#1086;&#1073;&#1088;&#1072;&#1078;&#1077;&#1085;&#1080;&#1077; &#1074;&#1099;&#1073;&#1088;&#1072;&#1085;&#1086;?</text><text fill="#000000" font-family="sans-serif" font-size="11" lengthAdjust="spacing" textLength="19.0083" x="407.0537" y="113.3745">yes</text><text fill="#000000" font-family="sans-serif" font-size="11" lengthAdjust="spacing" textLength="13.7017" x="588.0938" y="113.3745">no</text><rect fill="#F1F1F1" height="33.9688" rx="12.5" ry="12.5" style="stroke:#181818;stroke-width:0.5;" width="264.248" x="128.8706" y="137.9688"/><text fill="#000000" font-family="sans-serif" font-size="12" lengthAdjust="spacing" textLength="244.248" x="138.8706" y="159.1074">&#1054;&#1090;&#1082;&#1088;&#1099;&#1090;&#1100; &#1076;&#1080;&#1072;&#1083;&#1086;&#1075; &#1074;&#1099;&#1073;&#1086;&#1088;&#1072; &#1085;&#1086;&#1074;&#1086;&#1075;&#1086; &#1080;&#1084;&#1077;&#1085;&#1080;</text><rect fill="#F1F1F1" height="33.9688" rx="12.5" ry="12.5" style="stroke:#181818;stroke-width:0.5;" width="208.2441" x="156.8726" y="191.9375"/><text fill="#000000" font-family="sans-serif" font-size="12" lengthAdjust="spacing" textLength="188.2441" x="166.8726" y="213.0762">&#1055;&#1077;&#1088;&#1077;&#1080;&#1084;&#1077;&#1085;&#1086;&#1074;&#1072;&#1090;&#1100; &#1080;&#1079;&#1086;&#1073;&#1088;&#1072;&#1078;&#1077;&#1085;&#1080;&#1077;</text><polygon fill="#F1F1F1" points="232.7266,245.9063,289.2627,245.9063,301.2627,257.9063,289.2627,269.9063,232.7266,269.9063,220.7266,257.9063,232.7266,245.9063" style="stroke:#181818;stroke-width:0.5;"/><text fill="#000000" font-family="sans-serif" font-size="11" lengthAdjust="spacing" textLength="56.5361" x="232.7266" y="261.7144">&#1059;&#1089;&#1087;&#1077;&#1096;&#1085;&#1086;?</text><text fill="#000000" font-family="sans-serif" font-size="11" lengthAdjust="spacing" textLength="19.0083" x="201.7183" y="255.312">yes</text><text fill="#000000" font-family="sans-serif" font-size="11" lengthAdjust="spacing" textLength="13.7017" x="301.2627" y="255.312">no</text><rect fill="#F1F1F1" height="33.9688" rx="12.5" ry="12.5" style="stroke:#181818;stroke-width:0.5;" width="234.3828" x="11" y="279.9063"/><text fill="#000000" font-family="sans-serif" font-size="12" lengthAdjust="spacing" textLength="214.3828" x="21" y="301.0449">&#1054;&#1090;&#1086;&#1073;&#1088;&#1072;&#1079;&#1080;&#1090;&#1100; &#1089;&#1086;&#1086;&#1073;&#1097;&#1077;&#1085;&#1080;&#1077; &#1086;&#1073; &#1091;&#1089;&#1087;&#1077;&#1093;&#1077;</text><rect fill="#F1F1F1" height="33.9688" rx="12.5" ry="12.5" style="stroke:#181818;stroke-width:0.5;" width="256.8301" x="265.3828" y="279.9063"/><text fill="#000000" font-family="sans-serif" font-size="12" lengthAdjust="spacing" textLength="236.8301" x="275.3828" y="301.0449">&#1054;&#1090;&#1086;&#1073;&#1088;&#1072;&#1079;&#1080;&#1090;&#1100; &#1086;&#1096;&#1080;&#1073;&#1082;&#1091; &#1087;&#1077;&#1088;&#1077;&#1080;&#1084;&#1077;&#1085;&#1086;&#1074;&#1072;&#1085;&#1080;&#1103;</text><polygon fill="#F1F1F1" points="260.9946,319.875,272.9946,331.875,260.9946,343.875,248.9946,331.875,260.9946,319.875" style="stroke:#181818;stroke-width:0.5;"/><rect fill="#F1F1F1" height="33.9688" rx="12.5" ry="12.5" style="stroke:#181818;stroke-width:0.5;" width="401.8965" x="552.2129" y="137.9688"/><text fill="#000000" font-family="sans-serif" font-size="12" lengthAdjust="spacing" textLength="381.8965" x="562.2129" y="159.1074">&#1054;&#1090;&#1086;&#1073;&#1088;&#1072;&#1079;&#1080;&#1090;&#1100; &#1089;&#1086;&#1086;&#1073;&#1097;&#1077;&#1085;&#1080;&#1077; &#1086; &#1090;&#1086;&#1084;, &#1095;&#1090;&#1086; &#1080;&#1079;&#1086;&#1073;&#1088;&#1072;&#1078;&#1077;&#1085;&#1080;&#1077; &#1085;&#1077; &#1074;&#1099;&#1073;&#1088;&#1072;&#1085;&#1086;</text><polygon fill="#F1F1F1" points="507.0779,349.875,519.0779,361.875,507.0779,373.875,495.0779,361.875,507.0779,349.875" style="stroke:#181818;stroke-width:0.5;"/><ellipse cx="507.0779" cy="404.875" fill="none" rx="11" ry="11" style="stroke:#222222;stroke-width:1;"/><ellipse cx="507.0779" cy="404.875" fill="#222222" rx="6" ry="6" style="stroke:#222222;stroke-width:1;"/><line style="stroke:#181818;stroke-width:1;" x1="507.0779" x2="507.0779" y1="30" y2="50"/><polygon fill="#181818" points="503.0779,40,507.0779,50,511.0779,40,507.0779,44" style="stroke:#181818;stroke-width:1;"/><line style="stroke:#181818;stroke-width:1;" x1="260.9946" x2="260.9946" y1="171.9375" y2="191.9375"/><polygon fill="#181818" points="256.9946,181.9375,260.9946,191.9375,264.9946,181.9375,260.9946,185.9375" style="stroke:#181818;stroke-width:1;"/><line style="stroke:#181818;stroke-width:1;" x1="220.7266" x2="128.1914" y1="257.9063" y2="257.9063"/><line style="stroke:#181818;stroke-width:1;" x1="128.1914" x2="128.1914" y1="257.9063" y2="279.9063"/><polygon fill="#181818" points="124.1914,269.9063,128.1914,279.9063,132.1914,269.9063,128.1914,273.9063" style="stroke:#181818;stroke-width:1;"/><line style="stroke:#181818;stroke-width:1;" x1="301.2627" x2="393.7979" y1="257.9063" y2="257.9063"/><line style="stroke:#181818;stroke-width:1;" x1="393.7979" x2="393.7979" y1="257.9063" y2="279.9063"/><polygon fill="#181818" points="389.7979,269.9063,393.7979,279.9063,397.7979,269.9063,393.7979,273.9063" style="stroke:#181818;stroke-width:1;"/><line style="stroke:#181818;stroke-width:1;" x1="128.1914" x2="128.1914" y1="313.875" y2="331.875"/><line style="stroke:#181818;stroke-width:1;" x1="128.1914" x2="248.9946" y1="331.875" y2="331.875"/><polygon fill="#181818" points="238.9946,327.875,248.9946,331.875,238.9946,335.875,242.9946,331.875" style="stroke:#181818;stroke-width:1;"/><line style="stroke:#181818;stroke-width:1;" x1="393.7979" x2="393.7979" y1="313.875" y2="331.875"/><line style="stroke:#181818;stroke-width:1;" x1="393.7979" x2="272.9946" y1="331.875" y2="331.875"/><polygon fill="#181818" points="282.9946,327.875,272.9946,331.875,282.9946,335.875,278.9946,331.875" style="stroke:#181818;stroke-width:1;"/><line style="stroke:#181818;stroke-width:1;" x1="260.9946" x2="260.9946" y1="225.9063" y2="245.9063"/><polygon fill="#181818" points="256.9946,235.9063,260.9946,245.9063,264.9946,235.9063,260.9946,239.9063" style="stroke:#181818;stroke-width:1;"/><line style="stroke:#181818;stroke-width:1;" x1="426.062" x2="260.9946" y1="115.9688" y2="115.9688"/><line style="stroke:#181818;stroke-width:1;" x1="260.9946" x2="260.9946" y1="115.9688" y2="137.9688"/><polygon fill="#181818" points="256.9946,127.9688,260.9946,137.9688,264.9946,127.9688,260.9946,131.9688" style="stroke:#181818;stroke-width:1;"/><line style="stroke:#181818;stroke-width:1;" x1="588.0938" x2="753.1611" y1="115.9688" y2="115.9688"/><line style="stroke:#181818;stroke-width:1;" x1="753.1611" x2="753.1611" y1="115.9688" y2="137.9688"/><polygon fill="#181818" points="749.1611,127.9688,753.1611,137.9688,757.1611,127.9688,753.1611,131.9688" style="stroke:#181818;stroke-width:1;"/><line style="stroke:#181818;stroke-width:1;" x1="260.9946" x2="260.9946" y1="343.875" y2="361.875"/><line style="stroke:#181818;stroke-width:1;" x1="260.9946" x2="495.0779" y1="361.875" y2="361.875"/><polygon fill="#181818" points="485.0779,357.875,495.0779,361.875,485.0779,365.875,489.0779,361.875" style="stroke:#181818;stroke-width:1;"/><line style="stroke:#181818;stroke-width:1;" x1="753.1611" x2="753.1611" y1="171.9375" y2="361.875"/><line style="stroke:#181818;stroke-width:1;" x1="753.1611" x2="519.0779" y1="361.875" y2="361.875"/><polygon fill="#181818" points="529.0779,357.875,519.0779,361.875,529.0779,365.875,525.0779,361.875" style="stroke:#181818;stroke-width:1;"/><line style="stroke:#181818;stroke-width:1;" x1="507.0779" x2="507.0779" y1="83.9688" y2="103.9688"/><polygon fill="#181818" points="503.0779,93.9688,507.0779,103.9688,511.0779,93.9688,507.0779,97.9688" style="stroke:#181818;stroke-width:1;"/><line style="stroke:#181818;stroke-width:1;" x1="507.0779" x2="507.0779" y1="373.875" y2="393.875"/><polygon fill="#181818" points="503.0779,383.875,507.0779,393.875,511.0779,383.875,507.0779,387.875" style="stroke:#181818;stroke-width:1;"/><!--SRC=[bL5BJW914DttATvoI3W1i-0i9WwHn0p6cOqxX1WnaBXb1GilC7n6Eehj5LxToEfkK8DWmggxNzNxL7LHNjoMfiMvzEcuPAsdbO5Cck1Inbpek-877VXE2rfkj2-YhworObcdfjj1mkcnse5Cku7oAikHt6L5mm0jpcJ0D-dBsBk2QoLLwkMusb7fF1cUhG4Lzs4ijz4X3IBp4Bp-Xdrd5GLF90P2vXUvvwUIHyV2xUFjwPku6YZ71V3fPqfzGeOxjOVea5qN6PAyzv-MJZTIXONkO8X0_ZE7jv3d89XVTZlcj-mP0H4Qjqt8ex-Ts8pVy-6dfIOQ5sNlvWi0]--></g></svg>